<svg xmlns="http://www.w3.org/2000/svg" id="Calque_1" version="1.1" viewBox="724.23 516.37 471.55 47.27">
  <!-- Generator: Adobe Illustrator 29.4.0, SVG Export Plug-In . SVG Version: 2.1.0 Build 152)  -->
  <defs>
    <style>
      .st0 {
        fill: #1a78bd;
      }

      .st1 {
        fill: #1982c1;
      }

      .st2 {
        fill: #178dc6;
      }

      .st3 {
        fill: #1697ca;
      }

      .st4 {
        fill: #14a2cf;
      }
    </style>
  </defs>
  <path class="st0" d="M785.98,546.07h17.15c-.61-1.28-.74-2.84-.4-4.59l4.45-25.11h-16.2l-4.46,25.11c-.27,1.62-.47,3.17-.54,4.59h0ZM724.63,540c-2.36,13.5,5.87,23.62,20.05,23.62h66.82c20.72,0,30.44-7.29,33.07-22.14l4.46-25.11h-16.2l-4.45,25.11c-.95,5.2-5.27,8.64-14.38,8.64h-64.66c-5.74,0-9.52-4.52-8.5-10.26,1.01-5.4,6.34-9.99,12.08-9.99h7.83c3.71,0,6.62,1.89,7.96,4.73h17.21c-.41-10.87-8.17-18.23-20.45-18.23h-12.29c-14.18,0-26.19,10.12-28.55,23.62h0ZM724.63,540"/>
  <path class="st1" d="M848.93,529.88l-.2,1.08c-1.69,9.79,4.52,13.1,13.09,13.77l17.69,1.35c1.48.14,2.29.61,2.02,1.96-.27,1.56-1.21,2.09-2.7,2.09h-14.85c-1.48,0-2.29-.54-2.02-2.09h-16.2l-.14.68c-1.62,8.1,4.12,14.92,12.82,14.92h21.06c8.71,0,16.6-6.07,17.75-12.89l.27-1.62c1.48-9.11-4.52-13.1-13.09-13.77l-17.62-1.42c-1.48-.14-2.3-.54-2.02-2.09.27-1.35,1.21-1.96,2.7-1.96h14.85c1.48,0,2.3.54,2.03,2.09h16.2l.13-.68c1.62-8.1-4.12-14.92-12.82-14.92h-21.06c-8.77,0-16.67,6.82-17.89,13.5h0ZM848.93,529.88"/>
  <path class="st2" d="M961.66,516.38h-58.05l-2.43,13.5h20.99l-6,33.75h16.2l6.01-33.75h20.86l2.43-13.5ZM961.66,516.38"/>
  <path class="st3" d="M977.36,563.62h12.29c14.18,0,26.19-10.12,28.55-23.62,2.36-13.5-5.87-23.62-20.05-23.62h-12.29c-14.18,0-26.19,10.12-28.55,23.62-2.36,13.5,5.87,23.62,20.05,23.62h0ZM973.52,539.86c1.01-5.4,6.34-9.99,12.08-9.99h7.83c5.74,0,9.52,4.59,8.57,9.99-1.01,5.74-6.34,10.2-12.08,10.26l-7.9.07c-5.74.07-9.52-4.59-8.5-10.33h0ZM1011.86,563.62h16.2l3.17-17.82,6.62,17.82h19.57l13.77-18.56-3.31,18.56h16.2l8.37-47.25h-19.57l-23.36,31.52-11.75-31.52h-17.55l-1.08,5.8c3.64,4.32,5.06,10.8,3.78,17.82-1.42,7.9-4.19,13.97-9.92,18.63l-1.15,5ZM1011.86,563.62"/>
  <path class="st4" d="M1153.93,516.38h-37.12l-31.99,47.25h18.9l6.41-9.45h16.8l2.23-12.15h-10.87l8.23-12.15h8.84l-6,33.75h16.2l1.55-8.64,8.44-6.75,13.64,15.39h20.92l-22.21-25.11,27.88-22.14h-22.95l-22,17.41,3.1-17.41ZM1153.93,516.38"/>
</svg>